<?xml version="1.0" standalone="no"?><!DOCTYPE svg PUBLIC "-//W3C//DTD SVG 1.1//EN" "http://www.w3.org/Graphics/SVG/1.1/DTD/svg11.dtd"><svg t="1712830790480" class="icon" viewBox="0 0 1024 1024" version="1.1" xmlns="http://www.w3.org/2000/svg" p-id="7983" width="64" height="64" xmlns:xlink="http://www.w3.org/1999/xlink"><path d="M0.185907 511.90696a511.72088 511.72088 0 0 1 511.720879-511.72088 511.72088 511.72088 0 0 1 511.72088 511.72088 511.72088 511.72088 0 0 1-511.72088 512.09304 511.72088 511.72088 0 0 1-511.720879-512.09304z m46.52008 0a465.852081 465.852081 0 0 0 465.200799 465.57296 465.852081 465.852081 0 0 0 465.2008-465.57296 465.805561 465.805561 0 0 0-465.2008-465.2008 465.805561 465.805561 0 0 0-465.200799 465.2008z m93.04016 0a372.672361 372.672361 0 0 1 372.160639-372.16064 372.672361 372.672361 0 0 1 372.16064 372.16064 372.765401 372.765401 0 0 1-372.16064 372.5328 372.765401 372.765401 0 0 1-372.160639-372.5328z m259.675086 232.6004h242.323097v-46.14792h-94.249682V313.312739l-150.445939 43.635835v49.450844l97.087407-28.330728v320.38379H399.467753z" p-id="7984" fill="#f68d46"></path></svg>